# Blender 5.2.1 LTS
# www.blender.org
mtllib prkfloor.mtl
o Cube.001
v 27.370022 -0.686488 -27.570023
v 27.370022 -0.686488 -27.570023
v 27.370022 -0.686488 -27.570023
v 27.370022 0.686488 -27.570023
v 27.370022 0.686488 -27.570023
v 27.370022 0.686488 -27.570023
v 27.370022 -0.686488 70.570023
v 27.370022 -0.686488 70.570023
v 27.370022 -0.686488 70.570023
v 27.370022 0.686488 70.570023
v 27.370022 0.686488 70.570023
v 27.370022 0.686488 70.570023
v -70.770020 -0.686488 -27.570023
v -70.770020 -0.686488 -27.570023
v -70.770020 -0.686488 -27.570023
v -70.770020 0.686488 -27.570023
v -70.770020 0.686488 -27.570023
v -70.770020 0.686488 -27.570023
v -70.770020 -0.686488 70.570023
v -70.770020 -0.686488 70.570023
v -70.770020 -0.686488 70.570023
v -70.770020 0.686488 70.570023
v -70.770020 0.686488 70.570023
v -70.770020 0.686488 70.570023
vn -0.0000 -1.0000 -0.0000
vn -0.0000 -0.0000 1.0000
vn -1.0000 -0.0000 -0.0000
vn -0.0000 1.0000 -0.0000
vn 1.0000 -0.0000 -0.0000
vn -0.0000 -0.0000 -1.0000
vt 0.625000 0.500000
vt 0.875000 0.500000
vt 0.875000 0.750000
vt 0.625000 0.750000
vt 0.375000 0.750000
vt 0.625000 1.000000
vt 0.375000 1.000000
vt 0.375000 0.000000
vt 0.625000 0.000000
vt 0.625000 0.250000
vt 0.375000 0.250000
vt 0.125000 0.500000
vt 0.375000 0.500000
vt 0.125000 0.750000
s 0
usemtl Material.001
f 2/1/1 20/3/1 14/2/1
f 2/1/1 8/4/1 20/3/1
f 10/5/2 19/6/2 7/4/2
f 10/5/2 22/7/2 19/6/2
f 24/8/3 15/10/3 21/9/3
f 24/8/3 18/11/3 15/10/3
f 17/12/4 11/5/4 5/13/4
f 17/12/4 23/14/4 11/5/4
f 6/13/5 9/4/5 3/1/5
f 6/13/5 12/5/5 9/4/5
f 16/11/6 1/1/6 13/10/6
f 16/11/6 4/13/6 1/1/6
o Cube.002
v 27.249374 -0.384546 -27.570047
v 27.249374 -0.384546 -27.570047
v 27.249374 -0.384546 -27.570047
v 27.249374 0.384546 -27.570047
v 27.249374 0.384546 -27.570047
v 27.249374 0.384546 -27.570047
v 27.249374 -0.384546 -15.564127
v 27.249374 -0.384546 -15.564127
v 27.249374 -0.384546 -15.564127
v 27.249374 0.384546 -15.564127
v 27.249374 0.384546 -15.564127
v 27.249374 0.384546 -15.564127
v 54.898193 -0.384546 -27.570047
v 54.898193 -0.384546 -27.570047
v 54.898193 -0.384546 -27.570047
v 54.898193 0.384546 -27.570047
v 54.898193 0.384546 -27.570047
v 54.898193 0.384546 -27.570047
v 54.898193 -0.384546 -15.564127
v 54.898193 -0.384546 -15.564127
v 54.898193 -0.384546 -15.564127
v 54.898193 0.384546 -15.564127
v 54.898193 0.384546 -15.564127
v 54.898193 0.384546 -15.564127
v 54.898193 -19.933693 27.435873
v 54.898193 -19.933693 27.435873
v 54.898193 -19.933693 27.435873
v 54.898193 -20.702785 27.435873
v 54.898193 -20.702785 27.435873
v 54.898193 -20.702785 27.435873
v 27.249374 -20.702785 27.435873
v 27.249374 -20.702785 27.435873
v 27.249374 -20.702785 27.435873
v 27.249374 -19.933693 27.435873
v 27.249374 -19.933693 27.435873
v 27.249374 -19.933693 27.435873
vn -0.0000 -1.0000 -0.0000
vn -1.0000 -0.0000 -0.0000
vn 1.0000 -0.0000 -0.0000
vn -0.0000 1.0000 -0.0000
vn -0.0000 -0.0000 -1.0000
vn -0.0000 -0.0000 1.0000
vn -0.0000 0.9041 0.4272
vn -0.0000 -0.9041 -0.4272
vt 0.625000 0.500000
vt 0.875000 0.500000
vt 0.875000 0.750000
vt 0.625000 0.750000
vt 0.375000 0.750000
vt 0.375000 0.000000
vt 0.625000 0.000000
vt 0.625000 0.250000
vt 0.375000 0.250000
vt 0.125000 0.500000
vt 0.375000 0.500000
vt 0.125000 0.750000
vt 0.625000 1.000000
vt 0.375000 1.000000
s 0
usemtl Material.001
f 26/15/7 38/16/7 44/17/7
f 26/15/7 44/17/7 32/18/7
f 36/19/8 33/18/8 57/18/8
f 36/19/8 57/18/8 60/19/8
f 48/20/9 45/21/9 39/22/9
f 48/20/9 39/22/9 42/23/9
f 41/24/10 29/25/10 35/19/10
f 41/24/10 35/19/10 47/26/10
f 30/25/8 27/15/8 33/18/8
f 30/25/8 33/18/8 36/19/8
f 40/23/11 37/22/11 25/15/11
f 40/23/11 25/15/11 28/25/11
f 58/19/12 55/18/12 52/27/12
f 58/19/12 52/27/12 49/28/12
f 45/21/9 48/20/9 51/20/9
f 45/21/9 51/20/9 54/21/9
f 46/26/13 34/19/13 59/19/13
f 46/26/13 59/19/13 50/26/13
f 31/18/14 43/17/14 53/17/14
f 31/18/14 53/17/14 56/18/14
